<?xml version="1.0" encoding="UTF-8"?>
<!DOCTYPE svg PUBLIC "-//W3C//DTD SVG 1.1//EN" "http://www.w3.org/Graphics/SVG/1.1/DTD/svg11.dtd">
<!-- Creator: CorelDRAW X7 -->
<svg xmlns="http://www.w3.org/2000/svg" xml:space="preserve" width="500mm" height="596.041mm" version="1.1" style="shape-rendering:geometricPrecision; text-rendering:geometricPrecision; image-rendering:optimizeQuality; fill-rule:evenodd; clip-rule:evenodd"
viewBox="0 0 9453 11269"
 xmlns:xlink="http://www.w3.org/1999/xlink">
 <defs>
  <style type="text/css">
   <![CDATA[
    .str1 {stroke:#33241D;stroke-width:6.44691}
    .str0 {stroke:#5C463D;stroke-width:6.44691}
    .fil8 {fill:none}
    .fil32 {fill:#FEFEFE}
    .fil38 {fill:#EEEEEF}
    .fil25 {fill:#DCDDDD}
    .fil27 {fill:#B6B6B7}
    .fil29 {fill:#B6B6B7}
    .fil26 {fill:#8B8B8C}
    .fil3 {fill:black}
    .fil0 {fill:black}
    .fil31 {fill:#262427}
    .fil1 {fill:#262427}
    .fil9 {fill:#33241D}
    .fil10 {fill:#33241D}
    .fil23 {fill:#5C463D}
    .fil19 {fill:#7A4B43}
    .fil12 {fill:#805C35}
    .fil11 {fill:#805C35}
    .fil24 {fill:#9E7951}
    .fil36 {fill:#A04D47}
    .fil7 {fill:#B37963}
    .fil35 {fill:#C56C66}
    .fil17 {fill:#C79078}
    .fil6 {fill:#D69C84}
    .fil14 {fill:#D69C86}
    .fil33 {fill:#E48986}
    .fil13 {fill:#ECC0A3}
    .fil4 {fill:#EDC0A3}
    .fil34 {fill:#F2A9A2}
    .fil5 {fill:#F4CEB7}
    .fil41 {fill:#F6D0BB}
    .fil22 {fill:#33241D;fill-opacity:0.168627}
    .fil30 {fill:#DCDDDD;fill-opacity:0.188235}
    .fil28 {fill:#DCDDDD;fill-opacity:0.231373}
    .fil42 {fill:#C89179;fill-opacity:0.231373}
    .fil37 {fill:#A04D47;fill-opacity:0.458824}
    .fil16 {fill:#D69C86;fill-opacity:0.458824}
    .fil40 {fill:#33241D;fill-opacity:0.501961}
    .fil18 {fill:#B37963;fill-opacity:0.580392}
    .fil20 {fill:#7A4B43;fill-opacity:0.650980}
    .fil21 {fill:#7A4B43;fill-opacity:0.670588}
    .fil2 {fill:#39363B;fill-opacity:0.709804}
    .fil39 {fill:#8B8B8C;fill-opacity:0.749020}
    .fil15 {fill:#D69C86;fill-opacity:0.749020}
   ]]>
  </style>
    <mask id="id0">
  <linearGradient id="id1" gradientUnits="userSpaceOnUse" x1="4789.75" y1="6007.3" x2="4298.76" y2="8559.82">
   <stop offset="0" style="stop-opacity:1; stop-color:white"/>
   <stop offset="1" style="stop-opacity:0; stop-color:white"/>
  </linearGradient>
     <rect style="fill:url(#id1)" x="3474" y="5446" width="2137" height="2297"/>
    </mask>
    <mask id="id2">
  <linearGradient id="id3" gradientUnits="userSpaceOnUse" x1="4544.65" y1="5813.02" x2="4589.76" y2="7597.27">
   <stop offset="0" style="stop-opacity:1; stop-color:white"/>
   <stop offset="1" style="stop-opacity:0; stop-color:white"/>
  </linearGradient>
     <rect style="fill:url(#id3)" x="3539" y="5587" width="2071" height="1570"/>
    </mask>
     <mask id="id4">
  <linearGradient id="id5" gradientUnits="userSpaceOnUse" x1="4686.68" y1="2498.96" x2="4169.92" y2="3839.54">
   <stop offset="0" style="stop-opacity:1; stop-color:white"/>
   <stop offset="1" style="stop-opacity:0; stop-color:white"/>
  </linearGradient>
      <rect style="fill:url(#id5)" x="3264" y="2641" width="2606" height="1705"/>
     </mask>
     <mask id="id6">
  <linearGradient id="id7" gradientUnits="userSpaceOnUse" x1="5245.49" y1="5438.41" x2="5974" y2="6211.22">
   <stop offset="0" style="stop-opacity:1; stop-color:white"/>
   <stop offset="1" style="stop-opacity:0; stop-color:white"/>
  </linearGradient>
      <rect style="fill:url(#id7)" x="5197" y="5528" width="696" height="607"/>
     </mask>
     <mask id="id8">
  <linearGradient id="id9" gradientUnits="userSpaceOnUse" x1="4712.55" y1="5211.92" x2="3517.22" y2="5919.84">
   <stop offset="0" style="stop-opacity:1; stop-color:white"/>
   <stop offset="1" style="stop-opacity:0; stop-color:white"/>
  </linearGradient>
      <rect style="fill:url(#id9)" x="3609" y="5458" width="862" height="597"/>
     </mask>
     <mask id="id10">
  <linearGradient id="id11" gradientUnits="userSpaceOnUse" x1="4940.56" y1="2845.97" x2="4059.44" y2="3337.65">
   <stop offset="0" style="stop-opacity:1; stop-color:white"/>
   <stop offset="1" style="stop-opacity:0; stop-color:white"/>
  </linearGradient>
      <rect style="fill:url(#id11)" x="4226" y="2531" width="1566" height="1016"/>
     </mask>
     <mask id="id12">
  <linearGradient id="id13" gradientUnits="userSpaceOnUse" x1="6160.14" y1="2920.35" x2="6361.49" y2="4805.96">
   <stop offset="0" style="stop-opacity:1; stop-color:white"/>
   <stop offset="1" style="stop-opacity:0; stop-color:white"/>
  </linearGradient>
      <rect style="fill:url(#id13)" x="3180" y="1732" width="3365" height="2614"/>
     </mask>
     <mask id="id14">
  <linearGradient id="id15" gradientUnits="userSpaceOnUse" x1="3972.39" y1="4911.21" x2="3969.06" y2="4650.16">
   <stop offset="0" style="stop-opacity:1; stop-color:white"/>
   <stop offset="1" style="stop-opacity:0; stop-color:white"/>
  </linearGradient>
      <rect style="fill:url(#id15)" x="3810" y="4606" width="297" height="234"/>
     </mask>
     <mask id="id16">
  <linearGradient id="id17" gradientUnits="userSpaceOnUse" x1="5732.26" y1="4972.35" x2="5707.4" y2="4727.61">
   <stop offset="0" style="stop-opacity:1; stop-color:white"/>
   <stop offset="1" style="stop-opacity:0; stop-color:white"/>
  </linearGradient>
      <rect style="fill:url(#id17)" x="5525" y="4679" width="308" height="210"/>
     </mask>
     <mask id="id18">
  <linearGradient id="id19" gradientUnits="userSpaceOnUse" x1="6019.65" y1="4487.33" x2="5018.55" y2="4551.82">
   <stop offset="0" style="stop-opacity:1; stop-color:white"/>
   <stop offset="1" style="stop-opacity:0; stop-color:white"/>
  </linearGradient>
      <rect style="fill:url(#id19)" x="5301" y="4336" width="1027" height="376"/>
     </mask>
     <mask id="id20">
  <linearGradient id="id21" gradientUnits="userSpaceOnUse" x1="3603.11" y1="4360.76" x2="4725.88" y2="4696.1">
   <stop offset="0" style="stop-opacity:1; stop-color:white"/>
   <stop offset="1" style="stop-opacity:0; stop-color:white"/>
  </linearGradient>
      <rect style="fill:url(#id21)" x="3404" y="4186" width="978" height="489"/>
     </mask>
     <mask id="id22">
  <linearGradient id="id23" gradientUnits="userSpaceOnUse" x1="3283.88" y1="4143.92" x2="4210.23" y2="3953.3">
   <stop offset="0" style="stop-opacity:1; stop-color:white"/>
   <stop offset="1" style="stop-opacity:0; stop-color:white"/>
  </linearGradient>
      <rect style="fill:url(#id23)" x="3103" y="3888" width="1026" height="598"/>
     </mask>
 </defs>
 <g id="Layer_x0020_1">
  <metadata id="CorelCorpID_0Corel-Layer"/>
  <g id="_1749112409376">
   <g>
    <path class="fil0" d="M6086 6960c35,19 74,36 110,53 87,42 173,84 260,125 254,122 508,244 762,367 252,122 503,244 753,369 87,43 174,86 260,132 35,18 105,52 134,79 76,70 150,186 202,274 108,184 194,385 265,585 51,145 93,295 135,443 56,198 109,397 162,596 103,393 202,787 298,1181l26 105 -9453 0 30 -108c122,-436 248,-872 377,-1307 76,-254 153,-508 235,-761 31,-98 64,-196 99,-293 23,-65 48,-133 78,-195 134,-277 297,-593 578,-748 103,-56 210,-110 315,-163 162,-82 323,-164 485,-246 160,-81 320,-163 480,-245 102,-53 208,-106 307,-164 44,-26 87,-50 131,-74 136,-74 275,-145 415,-211l18 -9 21 1c336,13 672,24 1007,31 174,3 349,6 523,6 123,0 251,0 374,-10 152,-13 315,-2 454,69 41,21 78,46 113,76 14,12 31,31 46,42z"/>
   </g>
   <path class="fil1" d="M3566 6830c0,0 -309,147 -539,282 -229,134 -1365,696 -1589,819 -224,124 -370,353 -543,711 -174,358 -784,2542 -784,2542l9234 0c0,0 -419,-1719 -593,-2212 -173,-492 -366,-752 -445,-825 -78,-73 -2213,-1086 -2264,-1114 -50,-28 -150,-210 -563,-176 -414,34 -1914,-27 -1914,-27z"/>
   <path class="fil2" d="M3566 6830c0,0 -73,35 -173,86 -17,66 -25,117 -32,139 -27,84 1142,931 1142,931 0,0 -522,43 -790,-107 -262,-146 -588,-372 -548,-845l-24 13c-44,86 -127,292 -147,638 -28,476 39,2351 44,2658 6,308 -162,773 -162,773 0,0 28,-1198 28,-1713 0,-515 -92,-1172 -70,-1516 17,-268 147,-633 203,-781l-10 6c-97,57 -357,190 -641,335 -69,55 -125,109 -154,157 -134,224 -50,1077 -72,1167 -23,89 -191,299 -191,299 0,0 48,-137 45,-271 -3,-135 -11,-823 -11,-963 0,-90 -250,-38 -450,34 -49,26 -89,47 -115,61 -47,26 -91,57 -131,92 -18,118 173,393 279,681 118,319 112,545 140,694 28,148 70,324 70,324 0,0 -88,-284 -161,-575 -67,-268 -327,-977 -368,-1088 -26,25 -51,53 -75,82 -80,122 -199,339 -188,542 17,302 392,800 406,859 14,58 -234,-213 -332,-426 -98,-212 -112,-515 -112,-515 0,0 -156,388 -156,824 0,437 906,1595 906,1595 0,0 -655,-167 -946,-761 -134,-274 -137,-648 -102,-971 -241,767 -557,1896 -557,1896l3503 0c-49,-530 -203,-2169 -236,-2548 -39,-453 19,-949 19,-949l95 85c0,0 89,1020 246,1770 105,503 266,1223 360,1642l1138 0c-187,-420 -506,-1132 -541,-1195 -51,-89 638,-17 850,151 147,116 385,696 518,1044l468 0 -197 -2426c0,0 264,487 409,1069 98,391 87,1000 69,1357l967 0c37,-124 84,-413 122,-490 48,-95 543,-377 756,-786 0,0 -87,213 -249,462 -115,176 -265,589 -343,814l461 0c63,-138 181,-448 181,-448 0,0 -30,342 -30,395 0,16 38,35 92,53l576 0c0,0 -419,-1719 -593,-2212 -173,-492 -366,-752 -445,-825 -78,-73 -2213,-1086 -2264,-1114 -50,-28 -150,-210 -563,-176 -414,34 -1914,-27 -1914,-27z"/>
   <path class="fil3" d="M7713 11184l63 0c11,-123 41,-404 73,-459 40,-71 445,-374 447,-375l0 0c-1,0 -419,271 -422,238 -3,-34 68,-454 85,-593 17,-140 319,-873 356,-1041 36,-168 12,-601 12,-601 0,0 -39,406 -67,503 -28,96 -178,384 -267,729 -90,344 -107,626 -129,811 -19,158 -122,649 -151,788z"/>
   <path class="fil3" d="M1932 10822c-16,-79 -30,-149 -37,-187 -17,-95 -141,-213 -214,-280 -16,-21 -33,-41 -50,-62 25,-24 171,-51 184,-88 8,-22 3,-83 -5,-142 -3,-57 -8,-114 -16,-133 2,-30 -656,-1302 -659,-1307l0 0c4,4 451,499 514,655 60,185 104,464 139,525 34,62 34,122 41,165 7,44 97,535 139,725 33,151 73,366 112,491l-72 0c-11,-64 -34,-177 -76,-362z"/>
   <g>
    <path class="fil0" d="M5647 6822c56,37 156,105 183,144 35,48 30,142 18,197 -28,123 -110,227 -205,306 -162,133 -428,218 -630,259 -296,61 -615,66 -911,5 -243,-51 -476,-165 -622,-371 -46,-64 -84,-139 -103,-216 -12,-47 -20,-113 -1,-160 20,-47 49,-88 85,-125 11,-13 42,-40 53,-54 2,-16 2,-36 2,-51 2,-40 2,-80 2,-121 0,-113 -4,-228 -13,-341 -2,-22 -4,-43 -6,-65 -31,-300 -67,-600 -102,-900l-7 -53 53 6c117,13 234,28 350,43 253,34 506,72 758,117 134,25 268,51 401,81 117,27 234,56 348,94 98,31 368,118 349,257 -18,133 -18,278 -18,412 0,178 6,358 16,536z"/>
   </g>
   <path class="fil4" d="M3439 5324c0,0 74,630 102,901 28,271 19,569 14,595 -6,25 -97,79 -140,183 -44,103 77,559 695,688 619,129 1265,-56 1506,-254 240,-199 208,-408 180,-447 -28,-39 -190,-144 -190,-144 0,0 -40,-676 1,-977 41,-302 -2168,-545 -2168,-545z"/>
   <path class="fil5" d="M3439 5324c0,0 74,630 102,901 28,271 19,569 14,595 -6,25 -97,79 -140,183 -43,102 73,543 663,681 -244,-340 -325,-705 -364,-887 -50,-235 -275,-1473 -275,-1473z"/>
   <path class="fil6" style="mask:url(#id0)" d="M4464 7733c271,9 531,-33 743,-98 113,-196 231,-508 279,-676 44,-158 92,-730 109,-953 2,-31 4,-61 7,-89l0 -1 -2120 -462c0,0 171,526 478,859 308,333 510,756 527,873 14,101 8,390 -23,547z"/>
   <path class="fil7" style="mask:url(#id2)" d="M5599 5948c1,-10 2,-21 3,-31l0 -1 -1264 -275 -790 -46c0,0 191,486 586,799 394,314 422,490 515,708 92,218 621,-386 747,-613 72,-130 150,-364 203,-541z"/>
   <path class="fil8" d="M1425 8071c0,0 451,-246 508,-232 57,14 67,1107 48,1192 -19,84 -222,529 -222,529 0,0 8,-398 -62,-672 -70,-274 -272,-817 -272,-817z"/>
   <g>
    <path class="fil9" d="M6790 4143c0,0 206,37 309,302 103,265 -94,474 -94,474 0,0 74,-121 40,-273 -33,-151 -164,-172 -164,-172 0,0 -22,177 -17,203 5,26 153,-23 153,-23 0,0 -9,62 -77,112 -68,50 -190,44 -190,44 0,0 223,226 151,441 -73,214 -384,165 -384,165l140 -93c0,0 140,-23 180,-133 40,-111 -171,-315 -175,-341 -5,-27 138,-395 131,-477 -6,-81 -3,-229 -3,-229z"/>
    <path class="fil10" d="M2552 3919c0,0 -168,22 -273,130 -104,107 94,532 94,532 0,0 -55,-385 -3,-446 52,-61 167,115 167,115 0,0 -28,-54 -101,-39 -74,14 -51,263 11,418 61,155 191,217 191,217l-56 -234c0,0 -92,-170 -94,-204 -1,-34 56,-50 56,-50 0,0 61,-181 58,-244 -3,-62 -50,-195 -50,-195z"/>
    <path class="fil10" d="M2678 1350l206 -160c5,-35 11,-69 17,-104 7,-40 20,-118 48,-148 30,-33 65,-66 98,-98 32,-32 65,-64 98,-96 47,-56 93,-115 135,-174 28,-40 59,-85 80,-129 35,-73 60,-175 71,-255l24 -186 86 166c36,68 67,161 74,236 4,33 0,69 -9,104 97,-36 195,-70 294,-101 68,-22 137,-43 206,-61 56,-14 116,-28 174,-33 94,-8 194,-5 288,0 133,6 267,17 399,32l296 33 -287 82c-42,12 -85,22 -128,30 -9,2 -18,4 -27,6 24,3 48,6 72,9 67,8 134,15 201,19 41,3 94,6 135,0 4,-1 8,-2 12,-2 38,-8 75,-25 110,-41 47,-22 94,-45 143,-63 166,-61 327,-56 497,-15 133,32 259,105 369,187 128,97 245,214 350,336 49,57 99,118 142,180l32 46 -89 68 -37 -43c-9,-11 -18,-22 -28,-33 19,24 37,49 55,72 56,72 114,144 176,210 39,41 80,81 124,116 116,92 230,179 336,283 131,129 241,273 318,440 77,169 69,356 14,530 -22,71 -57,155 -97,222 36,56 67,115 89,177 63,185 0,436 -147,565l-309 274 221 -349c15,-24 28,-57 37,-83 13,-38 23,-77 29,-117 -41,24 -87,44 -117,57l-23 9 -23 -10c-15,-6 -29,-13 -43,-20 -11,-6 -21,-11 -31,-18 -19,-12 -33,-28 -37,-49 -22,2 -43,4 -65,6l-63 7 -2 -64c-5,-177 -12,-354 -21,-531 -6,-103 -12,-206 -20,-309 -4,-39 -8,-78 -13,-117 -3,-23 -6,-48 -12,-70 -7,-23 -21,-50 -31,-71 -20,-41 -43,-81 -65,-120 -59,-105 -123,-208 -187,-311 -68,-109 -137,-217 -208,-323 -26,-39 -52,-77 -79,-115 -12,-17 -27,-40 -42,-55 -7,-8 -20,-17 -29,-24 -21,-15 -43,-30 -65,-44 -69,-44 -141,-84 -213,-120 -196,-99 -412,-182 -627,-225 -141,-28 -289,-40 -432,-21 -81,11 -166,34 -245,56 -113,32 -226,69 -338,108 -277,95 -552,202 -824,311 -344,137 -685,280 -1025,427 -157,67 -313,135 -468,204l-36 16 -28 -26c-51,-47 -104,-112 -139,-171 -30,-51 -53,-110 -50,-170 4,-67 43,-128 88,-176 30,-32 68,-65 108,-94l-13 3 25 -96c7,-25 26,-47 46,-61 43,-29 100,-32 151,-27 88,9 209,58 298,102zm3929 -336c-93,-91 -194,-177 -301,-249 -109,-73 -249,-147 -382,-153 27,20 58,42 71,50 79,51 161,98 243,143 84,47 170,93 254,141 32,18 65,36 96,56 6,4 12,8 19,12zm966 1888c8,-26 15,-52 19,-74 21,-107 16,-218 -9,-324 1,17 1,35 1,51 2,82 -4,165 -14,245 -3,28 -7,56 -12,84 5,6 10,12 15,18zm-5266 -1498l33 50 -44 33c-24,18 -75,66 -92,105 25,-5 60,-19 78,-26 19,-17 58,-53 64,-69 5,-23 9,-68 -13,-85 -6,-5 -15,-7 -26,-8z"/>
    <path class="fil11" d="M2204 1997c0,0 -177,-162 -170,-295 7,-133 227,-262 227,-262 0,0 -123,93 -122,176 1,82 174,0 174,0 0,0 82,-66 91,-107 8,-42 10,-109 -35,-144 -46,-35 -129,-14 -129,-14 0,0 15,-57 134,-45 119,12 310,113 310,113l255 -197c0,0 28,-217 53,-244 25,-27 196,-194 196,-194 0,0 170,-202 225,-318 55,-115 76,-273 76,-273 0,0 58,111 68,215 10,105 -67,204 -67,204 0,0 574,-223 795,-243 221,-19 675,32 675,32 0,0 -191,55 -413,71 -221,15 514,134 691,108 177,-26 314,-224 739,-122 426,103 827,679 827,679 0,0 -479,-572 -885,-584 -405,-13 602,445 690,536 88,91 247,344 439,497 192,152 481,359 637,701 156,343 -94,722 -94,722 0,0 145,-238 26,-599 -118,-361 -465,-494 -465,-494 0,0 235,202 328,390 93,187 15,597 15,597 0,0 136,140 194,309 58,168 -6,392 -130,501 0,0 84,-131 83,-334 -1,-203 -126,-308 -126,-308 0,0 5,174 33,217 28,43 80,60 52,100 -28,41 -165,96 -165,96 0,0 -89,-39 -74,-45 15,-6 127,-20 137,-45 10,-25 -268,5 -268,5 0,0 -25,-888 -69,-1042 -44,-154 -556,-946 -625,-1020 -68,-73 -807,-534 -1417,-451 -610,82 -2916,1111 -2916,1111z"/>
    <path class="fil9" d="M1676 2624c-4,5 -8,11 -11,17l-26 48c32,61 79,114 151,126 86,14 164,-7 228,-66 21,-20 45,-49 61,-77l-45 -177c-120,6 -293,40 -358,129zm-77 -95l15 -20 1 0c92,-111 224,-190 366,-218 44,-9 88,-5 129,16 99,49 143,174 165,275 21,93 32,206 30,302l0 9 -3 8c-14,47 -57,95 -94,125 -105,84 -248,106 -378,102 -82,-2 -157,-28 -221,-80 -78,-64 -127,-157 -156,-252 -35,-116 -57,-320 1,-431l103 -201 8 226c1,47 9,102 22,155 4,-5 8,-11 12,-16z"/>
    <path class="fil12" d="M2246 2883c0,0 -61,195 -415,187 -353,-9 -396,-540 -325,-678 0,0 16,439 274,481 259,42 361,-195 361,-195l-62 -243c0,0 -367,-6 -466,178 0,0 116,-212 379,-264 263,-52 254,534 254,534z"/>
    <path class="fil9" d="M6861 4177c2,8 4,17 6,25 17,71 28,144 33,217 6,67 -6,140 -22,205 -15,64 -35,126 -57,187 -8,23 -17,45 -25,68 -3,10 -8,23 -11,33 -2,13 -1,36 0,49 1,29 3,58 5,87 2,47 5,104 -7,148 -19,70 -115,182 -174,244 -8,69 -19,140 -31,208 -28,163 -63,326 -112,484 -44,144 -104,301 -190,425 -148,215 -304,427 -471,629 -155,187 -495,584 -746,621 -318,48 -840,23 -1091,-195 -39,-34 -75,-73 -109,-111 -45,-50 -88,-103 -131,-156 -102,-129 -200,-261 -296,-395 -88,-123 -173,-246 -257,-372 -64,-95 -127,-191 -186,-290 -69,-114 -110,-262 -139,-392 -29,-133 -49,-270 -62,-406 -5,-49 -10,-98 -12,-148 -19,-7 -38,-16 -53,-26 -70,-42 -118,-106 -145,-183 -22,-65 -33,-135 -23,-204 3,-22 8,-43 15,-64 3,-8 6,-17 9,-25 -1,-29 -5,-62 -8,-91 -6,-64 -14,-128 -25,-192 -3,-12 -5,-24 -7,-36 -8,-42 -13,-85 -17,-128 -5,-53 -9,-106 -13,-160 -6,-96 -11,-192 -15,-288 -44,-13 -90,-32 -126,-52 -22,-13 -45,-31 -66,-52 -7,7 -15,12 -23,16 -53,24 -129,-10 -144,-67 -6,-25 1,-73 8,-111 -55,-51 -109,-126 -91,-199 14,-60 104,-157 173,-225 -55,-47 -83,-114 -78,-195 3,-34 12,-74 26,-109 -41,-62 -78,-136 -105,-202 -67,-156 -107,-333 -77,-502 21,-121 66,-245 115,-357 53,-120 116,-240 186,-351 31,-50 106,-170 163,-189 18,-6 39,-10 61,-12 -39,-67 -62,-150 -69,-219l-16 -153 114 103c77,70 187,83 287,74 47,-4 104,-14 153,-29 32,-91 69,-183 109,-270 33,-73 75,-158 125,-219 96,-116 425,-177 569,-202 142,-25 286,-44 430,-60 37,-4 73,-5 110,-4 37,1 74,3 110,8 105,13 208,39 311,65 83,20 174,44 260,48 61,2 135,-11 196,-19 97,-14 193,-25 291,-27 284,-5 536,69 776,221 140,89 263,207 372,332 163,187 302,403 421,621 54,99 108,205 152,309 17,19 33,40 49,60 44,56 84,115 119,177 105,180 175,384 177,594 2,155 -23,306 -89,447 -19,42 -42,81 -66,120 -5,8 -17,25 -24,38 28,20 81,36 105,41l50 9c3,-1 5,-2 8,-4l168 -97 -86 174c-64,129 -251,488 -363,558 -59,37 -144,65 -210,87 -64,20 -129,39 -194,56z"/>
    <path class="fil13" d="M2832 5298c0,0 27,659 208,960 180,302 744,1117 966,1309 222,193 709,232 1044,182 336,-50 933,-870 1178,-1225 244,-355 324,-1110 324,-1110 0,0 154,-159 174,-233 19,-73 -9,-229 2,-280 10,-52 128,-305 114,-478 -14,-172 -54,-288 -54,-288 0,0 334,-81 446,-151 111,-69 341,-534 341,-534 0,0 -71,41 -187,74l89 -73c0,0 -115,-23 -154,-74 -40,-52 185,-184 180,-628 -4,-444 -336,-800 -336,-800 0,0 -372,-891 -927,-1244 -555,-354 -1015,-157 -1234,-167 -219,-9 -503,-147 -782,-117 -278,31 -849,107 -959,241 -110,134 -233,498 -233,498 0,0 -338,125 -527,-47 0,0 26,245 170,292 0,0 -133,-22 -201,1 -68,23 -366,515 -425,851 -59,336 191,689 191,689 0,0 -117,214 81,299 0,0 -195,178 -212,249 -18,72 98,163 98,163 0,0 -20,95 -14,118 5,23 43,37 61,29 18,-9 45,-65 45,-65 0,0 29,63 99,103 69,40 153,57 153,57 0,0 16,459 45,610 30,152 42,321 42,337 0,17 -60,107 -4,268 56,161 198,184 198,184z"/>
    <path class="fil8" d="M5790 6713c0,0 14,-243 30,-285 16,-43 132,-229 132,-229l146 82c0,0 -294,410 -308,432z"/>
    <path class="fil14" style="mask:url(#id4)" d="M3272 3018c0,0 117,-52 198,-45 80,7 140,540 329,709 189,168 621,600 865,651 245,52 611,-383 809,-395 198,-12 388,218 388,218 0,0 -177,-1003 -373,-1202 -195,-199 -786,-348 -1177,-293 -391,56 -881,153 -1039,357z"/>
    <path class="fil14" d="M5185 5523c0,0 136,-7 416,185 281,192 291,385 281,440 -9,54 -59,131 -94,216 -34,84 -47,380 -101,579 -55,200 -163,486 -344,606 -181,121 -533,163 -533,163 0,0 189,-177 277,-342 88,-165 101,-385 101,-385 0,0 -31,26 -170,39 -139,12 -391,-86 -391,-86 0,0 374,-23 477,-188 102,-164 342,-569 342,-569l-165 -247c0,0 62,-125 47,-219 -14,-93 -143,-192 -143,-192z"/>
    <path class="fil7" style="mask:url(#id6)" d="M5266 5537c68,19 180,64 335,171 101,69 166,137 209,200 45,75 63,131 71,167 3,21 4,38 3,52 0,-1 -46,-89 -61,-111 -15,-22 -92,-37 -92,-37 0,0 -3,-68 -122,-180 -118,-111 -220,-122 -220,-122 0,0 27,136 13,192 -11,46 -86,67 -116,73l-5 -8c0,0 7,-16 17,-40 16,-39 34,-94 32,-139l0 0c1,-13 0,-27 -2,-40 -11,-70 -86,-143 -123,-175 17,-2 38,-3 61,-3z"/>
    <path class="fil15" d="M4462 5468c0,0 -76,-12 -231,45 -156,58 -610,429 -614,523 -4,94 77,201 84,294 8,93 -48,567 -48,567l253 240c0,0 -88,-366 -29,-583 59,-218 208,-150 208,-150 0,0 -153,-112 -159,-173 -6,-61 152,-33 152,-33l-103 -147c0,0 134,-353 307,-302 0,0 85,-217 180,-281z"/>
    <path class="fil7" style="mask:url(#id8)" d="M4462 5468c0,0 -11,-2 -33,-1 -61,11 -162,33 -242,66 -136,71 -383,268 -502,399 -30,38 -54,76 -68,112l0 3c17,-20 145,-164 308,-280 175,-125 231,-133 280,-101 35,22 63,61 77,83 1,-3 10,-26 25,-58 11,-42 28,-90 52,-117 10,-11 22,-23 35,-36 21,-29 44,-54 68,-70z"/>
    <path class="fil14" d="M2832 5298c0,0 1,17 3,47 11,3 18,5 18,5 0,0 61,-676 54,-857 -7,-181 -110,-791 -110,-791 -40,-328 -258,-326 -291,-150 -14,71 -8,200 6,337 24,7 39,10 39,10 0,0 10,276 28,470 19,104 56,202 109,300 53,99 60,159 60,159l43 -78c0,0 -105,-124 -138,-248 -32,-125 -7,-278 -7,-278 0,0 0,154 33,273 33,118 156,230 156,230 0,0 -63,151 -60,208 2,56 48,267 48,267 0,0 -73,20 -111,-16 -38,-35 -101,-186 -101,-188 1,34 8,72 23,116 56,161 198,184 198,184z"/>
    <path class="fil7" d="M2832 5298c0,0 1,17 3,47 4,1 7,2 9,3 4,-12 8,-27 13,-45 12,-135 44,-522 50,-726 -1,-41 -2,-84 -3,-125 -17,-218 -107,-750 -107,-750 -22,-183 -100,-264 -171,-268 -52,61 -99,202 -126,301 2,48 7,101 12,154 24,7 39,10 39,10 0,0 6,170 17,337 39,-90 114,-252 128,-300 20,-66 -82,-275 -82,-275 0,0 129,195 135,249 6,54 -17,179 1,205 17,26 94,12 94,12 0,0 -51,117 -63,213 -11,97 64,303 64,303 0,0 -95,-92 -123,-170 -29,-79 -76,-235 -76,-235 1,40 6,161 33,259 33,118 156,230 156,230 0,0 -63,151 -60,208 2,47 35,203 45,252l9 28 -131 7c62,64 134,76 134,76zm-222 -808c20,60 46,120 78,179 53,99 60,159 60,159l43 -78c0,0 -105,-124 -138,-248 -24,-95 -16,-206 -10,-254 -12,37 -51,168 -33,242l0 0z"/>
    <path class="fil16" d="M5665 7260c225,-258 439,-556 563,-736 244,-355 324,-1110 324,-1110 0,0 154,-159 174,-233 19,-73 -9,-229 2,-280 10,-52 128,-305 114,-478 -14,-172 -54,-288 -54,-288 0,0 334,-81 446,-151 5,-3 10,-7 15,-11 -146,-798 -337,-1812 -546,-2011 -283,-269 -954,-675 -1553,-605 -599,71 -1933,555 -2130,861 -196,306 -102,2054 -102,2054 0,0 148,-351 240,-659 93,-308 91,-536 91,-536 0,0 178,-268 952,-341 774,-74 1221,148 1299,345 78,196 306,946 319,1015 13,69 -353,263 -1002,205 -648,-57 -679,-203 -897,-201 -218,2 -469,95 -469,95 0,0 -185,172 -244,282 -59,110 -79,250 -79,250 0,0 161,22 191,45 30,23 117,92 117,92 0,0 -179,-39 -242,-34 -63,5 -130,142 -130,142 0,0 307,-58 423,-42 116,16 187,109 360,144 172,35 472,-7 472,-7l-157 32c0,0 233,23 380,-32l-96 408c0,0 -125,97 -151,185 -26,88 -21,227 78,277 98,51 228,184 295,263 67,78 283,47 320,31 38,-17 260,-273 260,-273 0,0 51,-22 75,-95 23,-73 9,-154 -9,-194 -18,-41 -98,-126 -98,-126 0,0 340,-133 684,-227 344,-93 466,87 427,415 -39,328 -555,1075 -555,1075l-107 454z"/>
    <path class="fil13" d="M4750 4954c0,0 128,12 198,55 71,42 42,644 42,722 1,78 -52,145 -52,145 0,0 52,8 67,25 15,17 -5,210 -52,252 -47,41 -185,50 -214,30 -30,-21 -98,-182 -103,-230 -5,-47 75,-60 75,-60 0,0 -31,-17 -57,-75 -26,-59 -3,-747 18,-795 22,-49 78,-69 78,-69z"/>
    <path class="fil17" style="mask:url(#id10)" d="M4273 2571c0,0 -98,262 18,440 115,178 1270,552 1433,526 164,-26 -44,-563 -209,-675 -165,-111 -1001,-422 -1242,-291z"/>
    <path class="fil18" d="M6492 5788l0 0 60 -374c0,0 118,-176 127,-225 10,-50 -18,-166 -21,-192 -3,-25 -73,-36 -73,-36 0,0 136,-147 147,-170 12,-24 38,-179 38,-179l-144 164c0,0 104,-175 130,-223 27,-48 15,-185 12,-218 -2,-24 14,-136 22,-192 -2,-5 -2,-8 -2,-8l3 -1c2,-15 4,-25 4,-25 0,0 112,-1122 -283,-1542 -394,-420 -1492,-726 -2233,-813 -168,-20 -329,-17 -479,-1 -375,156 -692,328 -780,465 -56,88 -89,295 -106,545l-13 1080c3,110 7,205 10,278 52,-232 246,-1082 321,-1202 86,-140 1058,-327 1568,-243 385,64 568,201 660,338 18,22 31,44 40,67 5,12 10,26 16,43 3,7 6,14 8,21l0 1c2,6 5,13 7,20 77,210 418,1000 446,1117 29,120 -520,244 -587,288 -67,45 -224,198 -224,198l274 -76c0,0 -233,90 -290,122 -57,32 -240,144 -240,144 0,0 110,137 137,205 27,68 26,741 26,741 0,0 64,-235 158,-262 93,-27 91,189 61,249 -30,59 -136,82 -199,127 -63,45 -112,149 -153,166 -42,17 -156,26 -194,10 -37,-17 -123,-147 -161,-186 -37,-39 -186,-83 -231,-140 -46,-57 3,-250 63,-306 60,-57 111,151 111,151 0,0 -28,-156 -10,-270 18,-115 81,-396 114,-438 33,-41 87,-75 87,-75 0,0 -77,-121 -179,-176 -103,-54 -402,-142 -402,-142 0,0 302,71 302,65 -1,-7 -17,-128 -155,-184 -138,-57 -703,-279 -799,-281 -96,-2 -315,345 -322,365l0 0c-7,21 158,127 158,127l-180 -50c-10,43 -14,72 -14,72 0,0 161,22 191,45 75,26 171,120 171,120l-206 46 0 0c77,-9 156,-14 203,-8 116,16 187,109 360,144 172,35 472,-7 472,-7l-157 32c0,0 233,23 380,-32l-96 408c0,0 -125,97 -151,185 -26,88 -21,227 78,277 98,51 228,184 295,263 67,78 283,47 320,31 38,-17 260,-273 260,-273 0,0 51,-22 75,-95 23,-73 9,-154 -9,-194 -18,-41 -98,-126 -98,-126 0,0 152,-59 356,-127l0 0 0 0 0 0 1 0 1 0 1 -1 0 0 2 0c32,-11 208,-70 330,-133 135,-70 432,-71 529,-66 96,5 56,569 56,572z"/>
    <path class="fil19" d="M6552 5416l0 -2 1 -1c16,-73 72,-324 67,-366 -6,-51 -35,-86 -35,-86 0,0 84,-166 99,-186 15,-19 77,-152 77,-152l-135 153 48 -206c0,0 -7,-182 14,-237 15,-39 75,-157 106,-219l1 -5c0,0 1,-11 3,-31l-102 13c0,0 -110,182 -110,204 -1,21 -38,1139 -38,1139 0,0 1,-7 4,-18z"/>
    <path class="fil20" d="M3204 4622l0 0 100 71c11,7 18,12 18,12l-135 -38c0,0 93,75 190,93 97,17 250,9 324,11 73,2 237,59 237,59 0,0 149,91 210,107 60,16 159,-22 159,-22 0,0 -50,49 -171,90 -121,41 -235,77 -236,77l2 0 1 0 0 0c16,2 103,10 235,2l0 0 0 0c48,-2 92,-6 124,-10 217,-24 411,-109 384,-161 -27,-53 -76,-127 -229,-189 -152,-62 -387,-114 -387,-114 0,0 -213,-52 -303,-46 -90,6 -297,63 -340,72 -44,9 -183,-14 -183,-14z"/>
    <path class="fil21" d="M5440 4693l-1 0c-3,1 -52,20 -110,44 -93,40 -205,98 -240,155 -63,100 15,285 15,285 0,0 122,197 119,166 -2,-31 -27,-364 -27,-364 0,0 91,113 223,179 132,65 323,87 551,-5 229,-93 200,-236 200,-236 0,0 -124,172 -322,188 -199,16 -325,-94 -325,-94 0,0 120,12 203,6 82,-5 187,-51 187,-51 0,0 -90,-3 -175,-7 -86,-4 -197,-52 -197,-52 0,0 162,33 239,16 76,-16 208,-94 264,-102 56,-7 198,40 261,26 63,-14 118,-41 118,-41 0,0 -123,5 -144,-4 -21,-10 -149,-109 -335,-161 -185,-51 -455,36 -475,42 -3,1 -14,5 -29,10z"/>
    <path class="fil19" style="mask:url(#id12)" d="M6035 2241c-508,-249 -1224,-424 -1756,-487 -168,-20 -329,-17 -479,-1 -197,82 -378,168 -518,251 -92,158 -125,328 -61,482 0,0 51,-184 281,-218 231,-34 -123,292 -123,292 0,0 154,45 311,13 158,-32 517,-196 517,-196 0,0 -274,284 -260,283 13,-1 377,-116 515,-122 138,-5 784,266 928,315 144,49 326,109 397,187 71,78 95,622 172,757 77,134 562,540 562,540 0,0 27,-436 9,-571 -19,-135 2,-504 2,-504 0,0 -347,-627 -497,-1021z"/>
    <path class="fil22" d="M3931 7102c0,0 98,114 147,149 50,35 239,79 239,79l-124 83c0,0 288,-115 502,-97 214,18 489,144 489,144l-125 -87c0,0 177,-14 294,-70 116,-55 141,-112 141,-112 0,0 13,185 -109,320 -122,136 -529,228 -830,207 -300,-20 -546,-50 -624,-616z"/>
    <path class="fil23 str0" d="M2832 5298c0,0 27,659 208,960 180,302 744,1117 966,1309 222,193 709,232 1044,182 336,-50 933,-870 1178,-1225 199,-290 289,-846 316,-1041 20,-204 52,-1059 52,-1059l-38 -5c0,0 10,130 -3,271 -13,142 -12,610 -50,814 -39,203 -158,521 -158,521l15 -132c0,0 -36,132 -139,259 -103,127 -188,356 -188,356l13 -182c0,0 -92,237 -154,315 -63,77 -122,165 -122,165 -26,-236 24,-454 74,-540 50,-86 66,-223 -66,-273 -131,-50 -288,-15 -288,-15l151 178c0,0 -71,-92 -142,-144 -70,-52 -149,-73 -149,-73l46 128 -88 -140c0,0 -57,27 -139,74 -82,48 -184,188 -210,202 -26,15 -161,40 -216,25 -55,-15 -151,-136 -213,-196 -63,-60 -219,-119 -219,-119l-69 132 18 -126c0,0 -114,-9 -175,9 -61,18 -153,56 -153,56l111 -70c0,0 -384,6 -423,107 -39,100 87,211 66,334 -22,122 -52,287 -52,287l-45 -205c0,0 5,237 6,249 1,11 -30,-152 -111,-313 -81,-161 -334,-402 -334,-402l36 213c0,0 -46,-140 -91,-268 -45,-127 -92,-337 -92,-337l-9 176c0,0 -28,-327 -52,-680 -25,-353 -15,-1136 -15,-1136l-75 119c0,0 52,438 36,528 -16,89 -71,261 -70,342 1,82 12,370 12,370zm1879 1032c0,0 198,-6 251,-14 53,-8 123,-58 123,-58l-22 27c0,0 105,-1 163,-24 58,-23 177,-67 177,-67l-105 59c0,0 278,-34 371,-27 93,7 16,264 10,370 -5,106 -45,339 -75,423 -30,84 -119,195 -119,195l72 -180c0,0 -174,403 -409,538 -235,136 -708,73 -853,18 -145,-55 -206,-284 -206,-284l3 132c0,0 -84,-166 -117,-273 -34,-106 -65,-268 -65,-268l-4 240c0,0 -59,-131 -85,-260 -26,-129 -48,-228 -56,-331 -8,-103 29,-302 105,-358 76,-57 276,37 276,37l-33 -86c0,0 28,59 100,95 72,36 199,67 199,67l-90 -90c0,0 93,69 154,94 62,25 235,25 235,25z"/>
    <path class="fil9 str1" d="M6788 4135c0,0 334,-81 446,-151 111,-69 341,-534 341,-534 0,0 -71,41 -187,74l89 -73c0,0 -115,-23 -154,-74 -40,-52 185,-184 180,-628 -4,-444 -336,-800 -336,-800 0,0 -372,-891 -927,-1244 -555,-354 -1015,-157 -1234,-167 -219,-9 -503,-147 -782,-117 -278,31 -849,107 -959,241 -110,134 -233,498 -233,498 0,0 -338,125 -527,-47 0,0 26,245 170,292 0,0 -133,-22 -201,1 -68,23 -366,515 -425,851 -59,336 191,689 191,689 0,0 -117,214 81,299 0,0 -195,178 -212,249 -18,72 98,163 98,163 0,0 -20,95 -14,118 5,23 43,37 61,29 18,-9 45,-65 45,-65 0,0 29,63 99,103 69,40 153,57 153,57 0,0 1,15 2,40 -3,-87 4,-417 87,-386 84,33 262,810 262,810 56,-221 72,-1242 107,-1313 35,-71 167,-130 193,-218 26,-88 29,-424 93,-501 64,-77 452,-175 452,-175 -13,278 -415,424 -415,424 485,207 715,-670 845,-415 129,255 392,230 392,230 263,353 1066,110 1189,283 123,174 159,666 217,864 59,198 470,214 470,214 0,0 -272,-66 -322,-296 -50,-230 9,-426 9,-426 0,0 377,719 386,824 8,104 55,769 55,769 0,0 24,-263 47,-341 23,-78 168,-151 168,-151z"/>
    <path class="fil12" d="M6851 1364c-157,-243 -366,-503 -611,-659 -555,-354 -1015,-157 -1234,-167 -151,-6 -333,-74 -522,-105 176,117 515,240 703,241 248,2 498,-55 894,63 390,117 761,614 770,627z"/>
    <path class="fil12" d="M2308 3257c-18,17 -54,51 -90,90 -46,50 -86,104 -108,143 -1,2 -1,3 -1,4 -10,41 22,87 52,120 4,0 7,-1 10,-3 27,-17 149,-215 149,-215 0,0 -87,164 -87,213 0,31 35,89 64,132l2 -2c0,0 11,24 36,52l1 0c17,17 69,-178 170,-239 100,-62 246,-68 246,-68 0,0 -29,-35 -119,-67 -89,-32 -262,96 -262,96 0,0 18,-56 263,-140 245,-84 329,-313 435,-392l0 0c5,-4 10,-8 15,-12 90,-90 78,-315 78,-315 0,0 -172,91 -283,128 -111,37 -327,115 -327,115 0,0 109,32 237,15 128,-17 262,-130 262,-130 0,0 -69,104 -324,190 -254,87 -428,102 -428,102 0,0 228,33 354,20 127,-13 280,-102 280,-102 0,0 -72,90 -210,123 -137,34 -323,64 -415,142z"/>
    <path class="fil12" d="M2240 2946c1,0 -44,88 -31,171l0 0c113,-190 438,-297 627,-347 189,-50 337,-148 337,-148l-346 11c0,0 365,-36 371,-31 6,4 -165,-132 -325,-92 -160,40 -294,136 -294,136 0,0 197,-173 367,-163 169,9 256,82 256,82 0,0 -131,-176 -182,-198 -52,-21 -405,5 -571,163 -165,158 -178,287 -209,416z"/>
    <path class="fil12" d="M2372 1523c-116,171 -281,493 -323,734 -59,336 191,689 191,689 0,0 -130,-321 15,-649 0,0 -89,278 22,538 0,0 -58,-182 123,-335 181,-153 617,-186 617,-186 0,0 -281,-59 -569,57 0,0 140,-48 202,-112 62,-65 46,-323 114,-440 0,0 -149,112 -192,324 0,0 -42,-256 0,-408 0,0 -247,110 -319,344 0,0 56,-190 217,-378 160,-189 337,-213 337,-213 -22,-8 -288,-138 -435,35z"/>
    <path class="fil12" d="M6978 4083c95,-28 202,-65 256,-99 111,-69 341,-534 341,-534 0,0 -71,41 -187,74l89 -73c0,0 -90,-18 -138,-57 -11,-3 -17,-9 -16,-17 -8,-10 -6,-22 2,-39 4,-95 -5,-267 -102,-360 -112,-108 -256,-135 -443,-121 -186,15 -403,220 -521,112 -118,-107 -142,-236 -142,-236 0,0 39,310 154,336 115,26 274,-37 274,-37 0,0 -138,45 -201,91 -62,47 -53,153 -53,153 0,0 233,-118 318,-146 86,-29 257,-36 257,-36l-297 94c0,0 209,3 351,-28 142,-31 202,-123 202,-123 0,0 -17,50 -171,220 -154,171 -356,284 -356,284l544 -26 -488 113c0,0 162,-18 290,-11 127,7 383,86 383,86 0,0 -241,37 -343,51 -102,14 -383,109 -383,109 0,0 188,10 268,86 36,33 64,94 112,134z"/>
    <path class="fil12" d="M2870 1198c-50,6 -107,9 -163,1l-2 0c-13,-1 -26,-3 -38,-6 -58,-13 -114,-37 -162,-80 0,0 14,129 76,217 96,136 520,190 520,190 0,0 -357,3 -447,94 -90,91 -62,414 -62,414 0,0 20,-181 204,-303 183,-122 487,-119 487,-119 0,0 -354,58 -476,212 -122,154 -68,446 -68,446 110,-336 476,-336 476,-336 -248,84 -249,322 -249,322 182,-116 407,-150 407,-150 0,0 -264,79 -272,174 -8,95 135,287 135,287 0,0 12,-143 42,-202l0 0c5,-11 11,-21 17,-28 29,-35 123,-74 218,-106l0 0c78,-35 151,-178 151,-178 -50,19 -276,114 -276,114 239,-111 466,-270 466,-270 -228,98 -586,160 -586,160 280,-85 382,-200 382,-200 -131,-7 -220,-138 -220,-138 168,148 579,88 579,88 -433,-46 -536,-406 -536,-406 -30,-73 -115,-103 -115,-103 12,104 -26,248 -84,262 -57,15 -143,-1 -143,-1 0,0 136,-21 159,-47 23,-25 42,-77 42,-77 -142,34 -390,-49 -390,-49 118,41 371,22 371,22 0,0 -122,-214 -205,-189 -82,25 -261,57 -261,57 188,-19 269,-139 269,-139 0,0 -107,50 -246,67z"/>
    <path class="fil12" d="M7332 3324c10,-17 25,-39 41,-66 8,-15 18,-31 28,-49 50,-95 105,-239 102,-460 -4,-444 -336,-800 -336,-800 0,0 -61,-144 -168,-339 -71,-120 -214,-314 -433,-378 -303,-89 -588,-72 -588,-72 483,117 639,460 639,460 0,0 -133,-78 -279,-99 -146,-21 -342,37 -342,37 142,90 66,311 66,311 85,-27 192,37 192,37 -100,-49 -209,1 -209,1 89,65 277,93 277,93 -165,11 -323,-58 -323,-58 0,0 110,200 410,149 300,-52 294,-129 294,-129 -218,52 -434,-110 -434,-110 489,-226 618,271 618,271 -282,-13 -335,290 -335,290 83,-127 392,-141 392,-141 -278,28 -408,236 -408,236 201,173 584,136 584,136 -463,111 -739,-173 -739,-173 160,487 675,301 849,478 174,177 102,375 102,375z"/>
    <path class="fil24" d="M7503 2737c-10,-439 -336,-788 -336,-788 0,0 -61,-144 -168,-339 -23,-38 -53,-84 -90,-130 -24,-27 -47,-54 -70,-80 -30,-29 -62,-57 -98,-83 -169,-108 -363,-89 -363,-89 439,152 532,483 532,483 -241,-133 -584,14 -584,14 0,0 274,-34 423,54 150,87 171,269 171,269 8,-74 53,-116 53,-116 -63,136 23,275 23,275 0,0 -238,-11 -326,71 -41,39 -71,76 -92,105 24,-23 56,-41 91,-55l0 0c109,-50 339,-66 406,-93 66,-26 104,-135 104,-135 0,0 49,146 -17,257 -65,111 -255,217 -255,217 0,0 294,-99 431,-24 133,73 164,181 165,187z"/>
    <path class="fil12" d="M4330 417c-35,0 -71,1 -106,4 -271,30 -820,103 -950,231 -96,104 -211,485 51,690 0,0 -55,-585 456,-680 0,0 -231,59 -316,284 0,0 406,-261 676,-252 270,10 532,163 809,141 0,0 -136,29 -399,-41 -263,-69 -419,-100 -671,-13 -253,86 -434,288 -434,288 0,0 245,-48 334,-89 88,-41 276,-218 598,-166 0,0 -347,144 -503,179 -156,35 -433,72 -507,134 -74,61 27,259 389,300 0,0 -231,-104 -259,-210 -28,-106 417,-194 417,-194 0,0 -233,58 -322,134 -89,75 25,190 152,247 0,0 -58,-60 -18,-159 39,-98 247,-174 247,-174 0,0 -162,51 -186,208 -25,157 284,452 284,452 0,0 -228,-554 150,-705 378,-151 509,-69 713,-83 203,-14 543,-284 543,-284 0,0 -193,58 -395,14 -202,-44 -317,-235 -753,-256z"/>
    <path class="fil25" d="M3645 4698c0,0 121,105 267,128 146,24 362,-38 370,-45 8,-6 -201,-168 -356,-166 -155,2 -271,57 -281,83z"/>
    <path class="fil26" d="M3645 4698c0,0 13,11 36,27 46,-33 118,-75 183,-76 105,-2 314,76 310,109 -3,18 -32,43 -59,63 89,-14 162,-36 167,-40 8,-6 -201,-168 -356,-166 -155,2 -271,57 -281,83z"/>
    <path class="fil1" d="M3832 4806c25,9 52,16 80,20 46,8 99,7 150,1 40,-33 64,-84 60,-140 0,-6 -1,-11 -2,-17 -62,-31 -133,-56 -194,-55 -42,0 -80,5 -114,11 -14,26 -20,56 -17,87 2,36 16,67 37,93z"/>
    <path class="fil27" style="mask:url(#id14)" d="M3889 4822c8,2 15,3 23,4 30,5 62,6 96,5 57,-21 95,-78 90,-142 -1,-11 -3,-22 -7,-32 -54,-25 -113,-43 -165,-42 -29,0 -57,2 -83,6 -18,26 -27,57 -24,90 4,49 31,89 70,111z"/>
    <path class="fil28" d="M3889 4822c8,2 15,3 23,4 30,5 62,6 96,5 15,-6 29,-14 41,-24l-37 -53 -98 1 -49 50c8,7 16,12 24,17z"/>
    <path class="fil1" d="M3952 4618c45,-3 84,31 88,76 4,45 -30,85 -75,88 -45,4 -85,-30 -89,-75 -3,-45 30,-85 76,-89z"/>
    <path class="fil25" d="M5997 4802c0,0 -48,61 -235,76 -187,15 -252,-35 -342,-29 -89,5 -99,-48 68,-116 168,-68 503,-72 509,69z"/>
    <path class="fil26" d="M5997 4802c0,0 -23,29 -99,52 12,-24 30,-67 22,-78 -10,-15 -58,-64 -209,-61 -151,2 -255,55 -258,87 -2,16 13,35 28,50 -20,-3 -40,-5 -61,-3 -89,5 -99,-48 68,-116 168,-68 503,-72 509,69z"/>
    <path class="fil1" d="M5769 4877l-7 1c-79,6 -135,1 -182,-7 -37,-27 -63,-70 -67,-120 0,-9 0,-18 0,-27 93,-32 224,-46 326,-31 3,10 5,21 6,31 5,63 -26,121 -76,153z"/>
    <path class="fil29" style="mask:url(#id16)" d="M5708 4880c-24,1 -46,0 -66,-1 -58,-16 -103,-66 -108,-130 -1,-11 -1,-21 1,-32 84,-24 192,-36 282,-27 4,12 6,24 7,36 6,74 -45,140 -116,154z"/>
    <path class="fil30" d="M5708 4880c-24,1 -46,0 -66,-1 -22,-6 -42,-17 -59,-32l41 -50 119 -9 42 50c-20,21 -47,36 -77,42z"/>
    <path class="fil1" d="M5600 4702c48,-9 100,-15 149,-15 9,13 15,27 16,44 4,47 -31,89 -79,93 -48,4 -89,-32 -93,-79 -1,-16 1,-30 7,-43z"/>
    <path class="fil31" d="M5476 4846c0,0 -153,23 -188,16 -35,-6 116,-141 363,-180 246,-38 446,111 446,111l-83 11c0,0 -67,-107 -281,-108 -215,0 -342,97 -355,123 -13,27 98,27 98,27z"/>
    <path class="fil1" d="M5977 4754c0,0 11,75 -118,110 0,0 99,-12 155,-60 0,0 -2,-6 -6,-15 -6,-13 -17,-31 -31,-35z"/>
    <path class="fil32" d="M5636 4753l-55 3c0,0 7,7 18,9 11,3 37,-12 37,-12z"/>
    <path class="fil1" d="M4165 4796c0,0 212,52 228,47 17,-5 -222,-217 -455,-234 -234,-16 -415,89 -415,89l132 33c0,0 46,-102 243,-104 198,-2 359,137 364,152 6,15 -97,17 -97,17z"/>
    <path class="fil1" d="M3676 4686c0,0 16,41 84,94l-115 -51 31 -43z"/>
    <path class="fil32" d="M3912 4694l-55 3c0,0 7,7 18,10 10,2 37,-13 37,-13z"/>
    <path class="fil9" style="mask:url(#id18)" d="M5309 4703c0,0 103,-139 127,-153 25,-13 770,-202 844,-206 74,-3 21,196 21,196 0,0 -740,69 -992,163z"/>
    <path class="fil1" d="M5148 4823c0,0 307,-135 544,-171 237,-37 446,89 509,125 64,36 160,29 160,29 0,0 -89,9 -122,6 -34,-2 -191,-107 -376,-131 -185,-25 -381,20 -715,142z"/>
    <path class="fil1" d="M4517 4791c0,0 -318,-193 -659,-209 -340,-15 -449,92 -469,94 -21,1 -191,-47 -191,-47 0,0 166,75 195,75 29,-1 118,-87 336,-106 218,-20 505,78 788,193z"/>
    <path class="fil9" style="mask:url(#id20)" d="M4374 4667c0,0 -52,-141 -66,-161 -16,-22 -772,-298 -845,-311 -73,-13 -45,191 -45,191 0,0 718,156 956,281z"/>
    <g>
     <path class="fil33" d="M5600 6291c0,0 -289,521 -440,613 -150,92 -545,108 -742,10 -197,-97 -480,-595 -474,-669 7,-75 141,-52 195,-38 54,15 480,121 657,117 177,-5 678,-94 741,-84 63,10 63,51 63,51z"/>
     <path class="fil34" d="M4259 6566c0,0 48,134 105,159 56,26 277,63 460,-12l-565 -147z"/>
     <path class="fil35" d="M5600 6291c0,0 -289,521 -440,613 -104,63 -323,90 -514,70 1,-1 81,-40 98,-139 0,0 221,-3 289,-79 0,0 -225,21 -433,-35 -163,-44 -485,-209 -627,-386 -20,-43 -30,-75 -29,-90 7,-75 141,-52 195,-38 54,15 480,121 657,117 177,-5 678,-94 741,-84 63,10 63,51 63,51z"/>
     <path class="fil36" d="M3956 6295c-8,-23 -13,-40 -12,-50 3,-27 21,-41 46,-48 30,1 68,7 112,25 141,57 502,201 648,205 147,4 778,-183 828,-172 7,5 12,11 15,16 5,36 -53,116 -71,137 -21,25 -291,242 -618,310 -328,69 -849,-291 -907,-371 -14,-19 -28,-37 -41,-52z"/>
     <path class="fil1" d="M3939 6268c0,0 1,-52 55,-70 54,-18 601,225 736,230 135,5 754,-175 808,-166 53,8 -6,92 -6,92 0,0 -2,-50 -38,-59 -36,-9 -207,355 -590,423 -383,68 -712,-241 -787,-329 -75,-88 -101,-150 -122,-163 -22,-13 -53,27 -56,42z"/>
     <path class="fil37" d="M5124 6639c-64,36 -137,64 -220,79 -199,35 -383,-31 -524,-115 82,-6 240,-14 413,-8 151,5 264,27 331,44z"/>
     <path class="fil38" d="M4151 6239c188,65 485,185 579,189 87,3 375,-70 583,-121 2,22 4,56 -9,70 -20,23 -51,18 -51,18 6,28 -12,98 -56,110 -44,12 -87,-31 -87,-31 0,0 -15,56 -46,64 -32,7 -104,-2 -104,-2 0,0 -30,33 -90,31 -60,-2 -131,-22 -131,-22 0,0 -69,17 -133,14 -64,-4 -82,-35 -82,-35 0,0 -51,24 -98,4 -46,-21 -55,-68 -55,-68 0,0 -53,43 -107,27 -53,-16 -57,-119 -57,-119 0,0 -68,12 -73,-12 -4,-17 10,-84 17,-117z"/>
     <path class="fil39" d="M4225 6265l20 7 -37 109c0,-8 -1,-13 -1,-13 0,0 -4,1 -10,2l28 -105zm157 58l17 6 -26 137c-2,-4 -2,-6 -2,-6 0,0 -4,3 -11,7 7,-44 20,-121 22,-144zm160 56l12 4 -25 147c-3,-4 -5,-6 -5,-6 0,0 -2,1 -7,2 7,-43 21,-126 25,-147zm197 49c4,0 8,0 11,-1l1 121c-7,-2 -12,-3 -12,-3l-2 1 2 -118zm201 -32l14 -4 13 144c-4,0 -7,0 -7,0 0,0 -1,2 -5,5l-15 -145zm152 -35l17 -4 5 121c-2,-2 -4,-4 -4,-4 0,0 -1,6 -5,14l-13 -127zm145 -35l13 -3 14 72c-6,0 -11,0 -11,0 1,4 2,10 1,16l-17 -85z"/>
    </g>
    <path class="fil12" d="M4046 1457c0,0 -38,-305 269,-437 307,-132 764,-11 764,-11 0,0 -187,127 -311,189 -124,63 -429,-137 -722,259z"/>
    <path class="fil12" d="M5108 1007c0,0 132,-98 412,-84 0,0 -249,-42 -441,43 0,0 232,-196 548,-273 315,-78 837,124 1224,671 0,0 -326,-332 -765,-367 0,0 294,16 557,234 0,0 -313,-156 -733,-87 -419,68 -718,12 -802,-137z"/>
    <path class="fil24" d="M5108 1007c0,0 132,-98 412,-84 0,0 -249,-42 -441,43 0,0 232,-196 548,-273 47,-12 100,-18 155,-16 328,19 639,265 639,265 0,0 -268,-114 -444,-139 -175,-24 -534,49 -534,49 0,0 300,-50 442,-38 141,12 314,86 314,86 0,0 -248,43 -432,57 -183,13 -350,3 -350,3 0,0 183,11 311,13 127,1 293,-15 293,-15 0,0 -103,120 -436,149 -333,28 -477,-100 -477,-100z"/>
    <path class="fil12" d="M5064 1578c0,0 459,-200 833,-16 373,185 -86,686 -457,532 -371,-154 -253,-483 -115,-517 137,-35 250,37 250,37 0,0 -136,24 -172,86 0,0 85,-67 182,-57 0,0 -178,75 -209,216 -32,141 304,-46 343,-164 40,-118 -369,-196 -655,-117z"/>
    <path class="fil24" d="M5282 1994c-169,-165 -70,-389 43,-417 137,-35 250,37 250,37 0,0 -136,24 -172,86 0,0 85,-67 182,-57 0,0 -137,58 -192,167l0 0c-11,19 -16,37 -18,54 -1,5 -2,9 -2,13 -1,35 9,60 9,60 0,0 -63,-67 -68,-127 -5,-60 98,-186 98,-186 0,0 -112,54 -135,150 -24,94 4,217 5,220z"/>
    <path class="fil12" d="M4146 1917c0,0 -137,-422 116,-575 253,-153 587,-39 838,-204 0,0 -79,141 -299,194 0,0 284,-29 388,-193 0,0 -18,142 -142,275 -124,132 -533,107 -662,179 -129,73 -139,355 -139,355 0,0 -60,-452 305,-520 0,0 -360,11 -405,489z"/>
    <path class="fil12" d="M4315 2010c0,0 8,-242 77,-329 69,-88 480,-76 693,-231 0,0 -86,143 -216,224 -130,80 -396,117 -437,232 0,0 -12,-173 237,-220 0,0 -158,16 -227,84 -69,68 -127,240 -127,240z"/>
    <path class="fil12" d="M5081 1528c0,0 28,-207 209,-290 180,-82 669,-75 874,12 206,87 374,304 374,304 0,0 -34,-56 -143,-76 -109,-19 -265,2 -490,5 -225,2 -559,-74 -758,42 0,0 153,-180 502,-156 0,0 -356,-84 -568,159z"/>
    <path class="fil12" d="M5319 2107c0,0 119,113 349,122 231,9 492,-98 492,-98 0,0 -74,275 -456,329 -381,54 -497,-274 -497,-274 0,0 220,222 541,140 0,0 -326,69 -429,-219z"/>
    <path class="fil12" d="M4184 2030c0,0 -11,151 255,213 266,63 619,-184 610,-401 0,0 -75,160 -280,240 -204,81 -308,-154 -220,-218 0,0 -129,69 -136,175 -7,105 172,128 172,128 0,0 -222,-11 -219,-134 0,0 -14,108 46,154 0,0 -151,-41 -228,-157z"/>
    <path class="fil24" d="M3461 623c14,-1 364,-170 763,-202 400,-31 550,103 618,141 69,38 225,160 636,97 0,0 -187,76 -410,89 -223,14 -386,-140 -684,-191 0,0 175,47 402,173 0,0 -306,-2 -423,-50 -117,-48 -396,-184 -902,-57z"/>
    <path class="fil24" d="M4387 1556c0,0 84,-87 190,-111 105,-24 234,-20 357,-72 122,-51 211,-159 211,-159 0,0 -75,148 -189,219 -114,72 -301,-1 -569,123z"/>
    <path class="fil40" d="M4371 6984c0,0 126,50 402,54 275,3 415,-53 415,-53l-105 307 6 -202 -72 211c0,0 -27,-57 -53,-84 -25,-28 -67,-77 -67,-77l57 108c0,0 -189,-33 -245,-25 -57,9 -165,56 -165,56l148 -109 -185 84 121 -126 -168 105c0,0 -19,-59 -42,-112 -24,-53 -47,-137 -47,-137z"/>
    <path class="fil9" d="M4297 2260c0,0 -51,88 -316,289 -265,200 -551,130 -551,130 0,0 281,82 448,49 168,-32 398,-254 527,-287 130,-34 330,83 330,83 0,0 -55,-113 -89,-149 -34,-37 -349,-115 -349,-115z"/>
    <path class="fil19" d="M6227 4832c0,0 43,38 98,44 55,7 125,-16 125,-16 0,0 -133,30 -189,52 -56,23 -66,34 -68,31 -1,-2 -15,-102 -15,-102l49 -9z"/>
    <path class="fil41" d="M4685 5931c0,0 174,-31 238,-26 64,4 59,94 53,109 -7,16 -181,14 -224,33 -43,19 -34,76 -34,76 0,0 -82,-123 -79,-153 3,-30 46,-39 46,-39z"/>
    <path class="fil13" d="M4463 5581c0,0 69,270 78,314 9,44 -184,9 -203,-65 -19,-75 82,-354 125,-249z"/>
    <path class="fil13" d="M5129 5930c0,0 -7,-257 83,-278 89,-21 90,198 80,240 -11,41 -163,38 -163,38z"/>
    <path class="fil41" d="M4147 5239c0,0 -643,-292 -862,-200 -219,92 -249,492 -147,651 102,160 890,-203 953,-269 64,-65 56,-182 56,-182z"/>
    <path class="fil41" style="mask:url(#id22)" d="M4121 4030c-24,-2 -253,-190 -548,-116 -294,74 -462,564 -462,564 0,0 223,-301 428,-331 205,-30 582,-117 582,-117z"/>
    <path class="fil42" d="M4882 3067c0,0 -18,530 -197,630 -179,100 -998,-179 -998,-179 0,0 402,476 719,549 318,72 1441,-126 1441,-126l-287 -699 -678 -175z"/>
   </g>
  </g>
 </g>
</svg>
