<?xml version="1.0" encoding="UTF-8" standalone="no"?>
<!DOCTYPE svg PUBLIC "-//W3C//DTD SVG 1.1//EN" "http://www.w3.org/Graphics/SVG/1.1/DTD/svg11.dtd">
<svg version="1.1" xmlns="http://www.w3.org/2000/svg" xmlns:xlink="http://www.w3.org/1999/xlink" preserveAspectRatio="xMidYMid meet" viewBox="-1 40.80455906821957 643.9999999999998 560.9308818635609" width="640" height="556.93"><defs><path d="M257.71 41.8L447.86 369.75L509.05 263.83L380.2 41.8L257.71 41.8Z" id="bETLnub9e"></path><linearGradient id="gradientaXzZrsAl" gradientUnits="userSpaceOnUse" x1="386.98" y1="165.98" x2="114.25" y2="484.88"><stop style="stop-color: #12d5f0;stop-opacity: 1" offset="0%"></stop><stop style="stop-color: #2062a3;stop-opacity: 1" offset="100%"></stop></linearGradient><path d="M640 490.65L570.25 369.78L447.79 369.78L386.41 475.96L230.55 206.32L198.07 149.35L136.31 255.84L198.07 362.33L273.14 492.25L123.53 492.25L123 492.25L123 492.25L122.46 492.25L123 491.71L61.23 385.22L0 491.71L61.76 598.74L457.37 598.2L386.41 475.96L508.49 476.27L578.77 597.67L640 490.65Z" id="aKH0ylrWG"></path><linearGradient id="gradientd3xvtiJ02" gradientUnits="userSpaceOnUse" x1="490.68" y1="252.92" x2="219.13" y2="572.39"><stop style="stop-color: #12d5f0;stop-opacity: 1" offset="0%"></stop><stop style="stop-color: #2062a3;stop-opacity: 1" offset="100%"></stop></linearGradient></defs><g><g><use xlink:href="#bETLnub9e" opacity="1" fill="url(#gradientaXzZrsAl)"></use><g><use xlink:href="#bETLnub9e" opacity="1" fill-opacity="0" stroke="#000000" stroke-width="1" stroke-opacity="0"></use></g></g><g><use xlink:href="#aKH0ylrWG" opacity="1" fill="url(#gradientd3xvtiJ02)"></use><g><use xlink:href="#aKH0ylrWG" opacity="1" fill-opacity="0" stroke="#000000" stroke-width="1" stroke-opacity="0"></use></g></g></g></svg>